Coordinates
version=1
nRows=9
nColumns=36
inDegrees=yes

Units are S.I. units (second, meters, Newtons, ...)
If the header above contains a line with 'inDegrees', this indicates whether rotational values are in degrees (yes) or radians (no).

endheader
time	pelvis_tilt	pelvis_list	pelvis_rotation	pelvis_tx	pelvis_ty	pelvis_tz	hip_flexion_r	hip_adduction_r	hip_rotation_r	knee_angle_r	knee_angle_r_beta	ankle_angle_r	subtalar_angle_r	mtp_angle_r	hip_flexion_l	hip_adduction_l	hip_rotation_l	knee_angle_l	knee_angle_l_beta	ankle_angle_l	subtalar_angle_l	mtp_angle_l	lumbar_extension	lumbar_bending	lumbar_rotation	arm_flex_r	arm_add_r	arm_rot_r	elbow_flex_r	pro_sup_r	arm_flex_l	arm_add_l	arm_rot_l	elbow_flex_l	pro_sup_l
      0.00000000	     -1.43751368	      5.38744538	      9.76906672	     -0.37939670	      1.02085211	     -0.23842179	     29.15247061	     -8.82781484	    -17.11863278	      0.62147727	      0.01084682	      4.46711306	     13.19361330	     -5.59733357	    -10.73540419	      8.84072334	      1.23700023	      2.56334811	      0.04473886	     13.64024332	     10.37750049	     -5.59733357	    -11.06635583	     -3.77840008	    -12.26215282	    -22.19786041	     -2.88682042	    -16.64896936	     32.70651320	    110.31107388	      8.05961695	    -12.62490083	    -13.40681258	     62.76775760	     97.88698749
      0.01000000	     -1.50701958	      5.55635890	      9.97808440	     -0.36500529	      1.01827193	     -0.23813603	     29.28730084	     -8.93122208	    -16.83736362	      0.49473103	      0.00863469	      4.89921748	     13.98261508	     -5.60994817	    -11.34699301	      8.79436405	      1.34477360	      3.04486288	      0.05314288	     14.08498657	     10.40520025	     -5.60994817	    -11.01724392	     -3.90170913	    -12.36232789	    -22.91214121	     -2.73932068	    -16.69420765	     32.41768325	    110.21507239	      8.73946808	    -12.97120738	    -13.20266809	     63.79059977	     98.04006376
      0.02000000	     -1.33138608	      5.57717050	     10.19238986	     -0.35006825	      1.01612760	     -0.23775012	     29.11581233	     -8.90638757	    -17.58545858	      0.49540545	      0.00864646	      5.84308255	     16.45876153	     -5.67278798	    -12.15697104	      8.48835354	      0.88044501	      3.62508056	      0.06326959	     14.97560779	     11.26312676	     -5.67278798	    -11.14471725	     -3.81539784	    -12.66886926	    -23.54975349	     -2.57770323	    -16.96191689	     32.30495592	    110.01564717	      9.09192881	    -13.60284261	    -12.71831945	     64.88334915	     98.41441462
      0.03000000	     -1.24058364	      5.58151216	     10.32176589	     -0.33514087	      1.01396510	     -0.23720211	     28.90637228	     -8.76109464	    -17.23508900	      0.50144129	      0.00875180	      6.12860761	     16.95427832	     -5.70247780	    -12.86596618	      8.20890274	      0.65717721	      4.20822066	      0.07344731	     15.53378362	     11.43275237	     -5.70247780	    -11.18000935	     -3.75229266	    -12.78131608	    -24.15886728	     -2.43857189	    -17.09915375	     32.10911012	    109.92518796	      9.49181675	    -14.01894078	    -12.44068008	     65.92607462	     98.63119797
      0.04000000	     -1.23402338	      5.50905646	     10.55757817	     -0.31999939	      1.01206557	     -0.23670680	     28.61294318	     -8.57496265	    -16.80814901	      0.56553428	      0.00987044	      6.09746614	     17.06435939	     -5.71099381	    -13.45898526	      7.83556172	      0.70119551	      4.78270462	      0.08347394	     15.58293616	     11.48484547	     -5.71099381	    -11.06347087	     -3.62225675	    -12.92227648	    -24.73751782	     -2.32199374	    -17.16153090	     31.90155226	    109.86805211	      9.89945399	    -14.26377156	    -12.37474687	     66.62134401	     98.72130271
      0.05000000	     -0.96715259	      5.30621646	     10.54966672	     -0.30430335	      1.01060389	     -0.23565042	     27.90862605	     -8.01289572	    -15.86462193	      0.64416701	      0.01124284	      5.70443219	     15.82158252	     -5.79183435	    -14.10168050	      7.22940980	     -0.48517447	      5.76849556	      0.10067924	     16.33616316	     12.73650839	     -5.79183435	    -11.22415430	     -3.33457726	    -13.08100054	    -25.15177885	     -2.17225457	    -17.61456976	     31.93168881	    109.76726249	      9.71756605	    -14.68561267	    -12.40154435	     68.06749824	     99.12620872
      0.06000000	     -0.82035386	      5.10295038	     10.60979214	     -0.28842874	      1.00940763	     -0.23459776	     27.20734990	     -7.47421953	    -15.02025671	      0.76759487	      0.01339706	      5.08880945	     14.45007184	     -5.84281057	    -14.67335003	      6.66290885	     -0.87213398	      6.64058912	      0.11590014	     16.35839210	     12.92671877	     -5.84281057	    -11.20164573	     -3.09557457	    -13.16765355	    -25.53204609	     -2.05359323	    -17.77598258	     31.81327268	    109.71244787	      9.55662747	    -14.97294516	    -12.42549252	     69.17890341	     99.37906195
      0.07000000	     -0.77191201	      4.85122230	     10.65567805	     -0.27229151	      1.00842438	     -0.23341367	     26.52683488	     -6.84877778	    -14.10064265	      0.89001339	      0.01553366	      4.19212155	     12.67199324	     -5.89737302	    -15.03308225	      6.05295880	     -1.29560672	      7.69295184	      0.13426734	     16.20390330	     12.98822490	     -5.89737302	    -11.04392613	     -2.83757182	    -13.29134214	    -25.78888198	     -1.96098924	    -17.91504727	     31.68094916	    109.66522366	      9.16010472	    -15.16780222	    -12.67457650	     70.33435707	     99.62464254
      0.08000000	     -0.80543453	      4.58282169	     10.69099168	     -0.25594066	      1.00770647	     -0.23210850	     25.86582917	     -6.18751151	    -13.32617360	      0.93433962	      0.01630730	      3.04965143	     10.91413230	     -5.95552781	    -15.22793367	      5.43554725	     -1.61314114	      8.87709005	      0.15493445	     15.80147476	     12.82784109	     -5.95552781	    -10.76763196	     -2.59698359	    -13.43423472	    -25.94371197	     -1.90165667	    -17.94355671	     31.49276029	    109.65357381	      8.58446738	    -15.30440246	    -13.03486473	     71.43352883	     99.86644644
